PathFileType	3	(X/Y/Z)	C:\Users\dbak576\Desktop\AnkleMomentFeedback\AB28\AB28_05Apr - Copy\AB28_05Apr_static_01.trc
DataRate	CameraRate	NumFrames	NumMarkers	Units	OrigDataRate	OrigDataStartFrame	OrigNumFrames
200.0	200.0	5	42	mm	200.0	36	141	
Frame#	Time	LASI			RASI			LPSI			RPSI			LTH1			LTH2			LTH3			LTH4			LMFC			LLFC			LTB1			LTB2			LTB3			LTB4			LMMAL			LLMAL			LCAL			LToe			LMT1			LMT5			RTH1			RTH2			RTH3			RTH4			RMFC			RLFC			RTB1			RTB2			RTB3			RTB4			RMMAL			RLMAL			RCAL			RToe			RMT1			RMT5			C7			T10			LACR1			RACR1			CLAV			RBack			
		X1	Y1	Z1	X2	Y2	Z2	X3	Y3	Z3	X4	Y4	Z4	X5	Y5	Z5	X6	Y6	Z6	X7	Y7	Z7	X8	Y8	Z8	X9	Y9	Z9	X10	Y10	Z10	X11	Y11	Z11	X12	Y12	Z12	X13	Y13	Z13	X14	Y14	Z14	X15	Y15	Z15	X16	Y16	Z16	X17	Y17	Z17	X18	Y18	Z18	X19	Y19	Z19	X20	Y20	Z20	X21	Y21	Z21	X22	Y22	Z22	X23	Y23	Z23	X24	Y24	Z24	X25	Y25	Z25	X26	Y26	Z26	X27	Y27	Z27	X28	Y28	Z28	X29	Y29	Z29	X30	Y30	Z30	X31	Y31	Z31	X32	Y32	Z32	X33	Y33	Z33	X34	Y34	Z34	X35	Y35	Z35	X36	Y36	Z36	X37	Y37	Z37	X38	Y38	Z38	X39	Y39	Z39	X40	Y40	Z40	X41	Y41	Z41	X42	Y42	Z42	
36	0.17	342.23148	991.89709	-820.33655	589.85364	1006.1993	-827.06812	425.05838	1033.8263	-646.76538	516.68182	1035.4473	-645.75928	282.58972	799.64484	-791.78326	328.02847	798.2572	-838.0658	303.43927	757.1911	-818.94745	292.61627	708.1106	-801.01099	406.2648	495.95364	-725.2854	290.39478	523.63025	-716.21863	265.41931	398.27469	-662.81323	265.27969	359.08917	-693.45758	276.50766	309.22659	-712.38074	273.66589	400.72351	-724.47223	376.88187	108.56828	-717.83417	292.35837	91.186905	-684.79993	348.36734	47.385754	-620.64307	329.09512	51.676865	-896.3551	362.89236	38.0872	-835.73297	251.79446	38.462223	-801.73376	663.88318	849.66754	-788.92389	677.49451	806.93976	-757.13507	676.71143	775.61194	-720.09625	675.44714	759.43347	-780.02045	545.38873	505.20914	-723.99524	665.3042	518.5907	-709.77222	664.80975	260.96222	-722.60376	675.52185	262.95096	-656.14197	675.50281	224.08084	-687.08289	666.2536	172.95015	-708.00726	586.29388	108.70974	-710.31702	667.80762	97.37146	-671.99615	601.99921	50.590714	-616.3576	663.31207	54.197853	-887.716	619.44958	42.524105	-828.7392	720.98785	44.955112	-779.13873	458.36295	1506.8265	-685.66541	467.63898	1237.7209	-615.73895	289.15161	1483.9275	-731.17657	634.75543	1461.7095	-745.42841	462.27048	1428.5365	-825.13129	581.46741	1380.335	-619.6499
37	0.175	342.23178	991.91455	-820.39325	589.89063	1006.1938	-827.10962	425.06924	1033.8792	-646.84735	516.7088	1035.4556	-645.82629	282.75092	799.53827	-791.79248	328.0473	798.21259	-838.42072	303.47534	757.16333	-818.96893	292.56274	708.14862	-801.07111	406.27231	495.93903	-725.21539	290.43054	523.64435	-716.20819	265.47147	398.27542	-662.81128	265.29614	359.09756	-693.46118	276.47678	309.28925	-712.43951	273.33389	400.77005	-724.39044	376.87509	108.54965	-717.81689	292.35648	91.198738	-684.78424	348.43646	47.390999	-620.62579	329.10245	51.657242	-896.35974	362.89182	38.087624	-835.73248	251.79398	38.464058	-801.74207	663.86908	849.69147	-788.97333	677.50983	806.90753	-757.16272	676.70123	775.63794	-720.05518	675.42725	759.4007	-780.02295	545.42773	505.20505	-723.99646	665.30408	518.59161	-709.77448	664.79559	260.96661	-722.62183	675.48785	262.94278	-656.16284	675.52802	224.09178	-687.11902	666.2514	172.95033	-708.00171	586.28632	108.70015	-710.30292	667.79193	97.373489	-671.97314	602.01721	50.580353	-616.29358	663.30823	54.185909	-887.71051	619.43231	42.544445	-828.75751	720.97333	44.95694	-779.11816	458.33203	1506.8125	-685.67352	467.71078	1237.7021	-615.80621	289.19067	1483.9241	-731.2193	634.7196	1461.6865	-745.48944	462.24078	1428.5425	-825.19647	581.48035	1380.3158	-619.70758
38	0.18	342.26288	991.90063	-820.47729	589.86469	1006.2075	-827.11932	425.08469	1033.8665	-646.83044	516.70972	1035.4196	-645.81458	282.72223	799.55072	-791.79498	327.95453	798.2124	-838.07501	303.48566	757.13898	-819.00684	292.58374	708.10699	-801.03137	406.27127	495.96384	-725.27289	290.38931	523.61975	-716.2323	265.46161	398.30215	-662.86224	265.29044	359.0918	-693.4975	276.48657	309.25012	-712.39014	273.64966	400.68265	-724.48065	376.86774	108.58648	-717.80652	292.34781	91.209129	-684.78162	348.42996	47.370396	-620.61853	329.08359	51.67944	-896.3844	362.88525	38.112568	-835.74164	251.79588	38.452343	-801.72705	663.78802	849.63507	-788.95605	677.47797	806.96161	-757.16168	676.72797	775.63074	-720.14929	675.40942	759.42358	-780.01904	545.44666	505.18591	-723.98663	665.28192	518.62274	-709.7821	664.76825	260.98102	-722.63623	675.52759	262.95493	-656.14374	675.52747	224.09007	-687.11908	666.27728	172.95952	-708.01239	586.29315	108.69501	-710.29865	667.7713	97.396782	-671.99799	601.98944	50.627113	-616.29114	663.31586	54.208839	-887.68555	619.42004	42.52887	-828.74908	721.00452	44.984859	-779.13245	458.34259	1506.8605	-685.7334	467.70581	1237.6869	-615.771	289.17941	1483.8988	-731.2439	634.75525	1461.7216	-745.4679	462.23846	1428.54	-825.19305	581.47815	1380.3273	-619.69965
39	0.185	342.20343	991.85052	-820.41095	589.81812	1006.2014	-827.12427	425.07187	1033.874	-646.83118	516.68304	1035.4741	-645.86212	282.76559	799.50635	-791.80713	328.01498	798.16064	-838.44183	303.50793	757.14148	-818.96906	292.61343	708.09143	-801.11066	406.22989	495.9592	-725.3855	290.41306	523.65228	-716.19183	265.44901	398.30084	-662.85846	265.35327	359.12933	-693.51758	276.55515	309.27652	-712.40143	273.31564	400.73578	-724.38409	376.87946	108.569	-717.83362	292.34717	91.21624	-684.80817	348.38889	47.398079	-620.62402	329.07175	51.662117	-896.35309	362.88235	38.117184	-835.74164	251.81183	38.458508	-801.72028	663.83374	849.66052	-788.98877	677.47656	806.96088	-757.19751	676.72247	775.60748	-720.16302	675.45233	759.45618	-780.0896	545.40741	505.19394	-723.9906	665.25739	518.60608	-709.78979	664.80872	260.97049	-722.69513	675.54346	262.9552	-656.14148	675.49994	224.10742	-687.1217	666.26019	172.95296	-708.00714	586.30841	108.66424	-710.27002	667.80731	97.338554	-672.00079	602.00189	50.586327	-616.27972	663.36896	54.234283	-887.72638	619.40796	42.501575	-828.72961	720.99603	44.977615	-779.19366	458.3399	1506.876	-685.7334	467.66183	1237.6886	-615.77942	289.18512	1483.9243	-731.33734	634.88165	1461.8319	-745.40155	462.19409	1428.4861	-825.21094	581.47437	1380.3176	-619.74219
40	0.19	342.22787	991.82117	-820.43665	589.81927	1006.1772	-827.17572	425.09875	1033.8807	-646.90033	516.73267	1035.474	-645.83392	282.74802	799.54517	-791.83875	327.97833	798.16333	-838.13373	303.46255	757.10126	-819.03723	292.67142	708.0672	-801.10681	406.2283	495.95657	-725.39001	290.48056	523.60077	-716.2063	265.45758	398.31354	-662.84698	265.34225	359.11694	-693.53595	276.45786	309.23926	-712.45551	273.28824	400.76306	-724.44159	376.87943	108.59318	-717.81952	292.37222	91.226036	-684.83563	348.34357	47.399979	-620.64191	329.08289	51.637543	-896.35773	362.85809	38.098892	-835.74261	251.77071	38.445049	-801.71863	663.83636	849.66919	-789.02087	677.45844	806.95953	-757.19287	676.70868	775.63721	-720.15436	675.35919	759.42273	-780.11652	545.38898	505.13672	-723.91449	665.25916	518.62042	-709.79834	664.80634	260.97345	-722.68854	675.52887	262.94589	-656.17804	675.4812	224.10361	-687.14325	666.24188	172.94597	-708.00977	586.28717	108.68947	-710.28857	667.77362	97.37635	-671.96246	602.04761	50.580746	-616.30872	663.33105	54.189075	-887.69293	619.40967	42.508289	-828.73535	720.95233	44.953011	-779.11566	458.3374	1506.8459	-685.7525	467.67386	1237.6917	-615.90875	289.15103	1483.8667	-731.32446	634.75116	1461.7194	-745.53589	462.21277	1428.4622	-825.27063	581.4201	1380.3051	-619.75427
